<?xml version="1.0" encoding="utf-8"?>
<!-- Generator: Adobe Illustrator 25.2.0, SVG Export Plug-In . SVG Version: 6.00 Build 0)  -->
<svg xmlns="http://www.w3.org/2000/svg" xmlns:xlink="http://www.w3.org/1999/xlink" version="1.1" id="Layer_1" x="0px" y="0px" viewBox="0 0 63 63" style="enable-background:new 0 0 63 63;" xml:space="preserve">
<style type="text/css">
	.st0{fill:#00406E;}
	.st1{fill:#FFFFFF;}
</style>
<g>
	<circle class="st0" cx="31.5" cy="31.5" r="31.5"/>
	<g>
		<path class="st1" d="M13.7,35.7c0.1-0.3,0.3-0.4,0.5-0.5c0.3-0.1,0.6-0.1,0.9-0.1c1.3,0.3,2.6,0.5,3.9,0.8c0,0,0.1,0,0.1,0    c-0.3-0.9-0.6-1.8-0.9-2.8c0.3-0.1,0.6-0.3,0.8-0.3c0.1,0,0.3,0,0.4,0c0.3,0.1,0.7,0.2,1,0.4c1,0.7,2,1.3,3,2c0.1,0,0.1,0,0.2,0    c0.9-0.4,1.8-0.8,2.8-1.3c0.4-0.2,0.9-0.4,1.3-0.6c0,0-0.1,0-0.1-0.1c-0.8-0.5-1.6-1-2.4-1.5c0,0-0.1-0.1-0.2-0.1    c-3.6-1.2-7.2-2.4-10.9-3.6c0,0-0.1,0-0.1,0c0.2-0.2,0.4-0.4,0.5-0.7c0.2-0.3,0.6-0.5,1-0.6c0,0,0.1,0,0.1,0    c3.8,0.5,7.6,1,11.4,1.5c3.1,0.4,6.2,0.8,9.2,1.2c0.2,0,0.3-0.1,0.4-0.1c1.4-0.6,2.9-1.3,4.3-1.9c0.3-0.2,0.7-0.3,1-0.5    c0.1-0.1,0.3-0.2,0.4-0.3c0.4-0.3,0.9-0.6,1.4-0.8c0.4-0.2,0.8-0.3,1.3-0.3c0.4-0.1,0.7,0,1.1,0.1c0.5,0.1,1.1,0.1,1.6,0.2    c0.3,0,0.5,0,0.8,0.1c0.7,0.2,0.9,0.8,0.7,1.4c-0.1,0.4-0.4,0.7-0.6,0.9c-0.6,0.6-1.3,1.1-2,1.5c-0.9,0.6-1.8,1.1-2.7,1.5    c-1.1,0.5-2.1,1-3.2,1.5c-0.4,0.2-0.8,0.3-1.2,0.5c0,0-0.1,0.1-0.1,0.1c-0.2,0.9-0.3,1.8-0.5,2.6c-0.4,1.9-0.7,3.9-1.1,5.8    c-0.1,0.5-0.4,0.8-0.8,0.9c-0.3,0.1-0.6,0.2-0.8,0.3c0,0,0,0,0,0c0,0-0.1,0-0.1,0c0,0,0,0,0,0c-0.4-1.7-0.8-3.5-1.3-5.2    c0,0,0-0.1-0.1-0.1c-0.8-0.5-1.7-0.9-2.5-1.4c0,0-0.1,0-0.1,0c-0.4,0.1-0.8,0.3-1.2,0.4c-0.8,0.3-1.7,0.5-2.5,0.7    C27,38,26,38.2,24.9,38.4c-0.7,0.1-1.4,0.3-2,0.4c-0.1,0-0.1,0-0.1,0.1c0,0.5,0,1.1,0,1.6c0,0.1,0,0.2-0.1,0.3    c-0.2,0.2-0.4,0.3-0.6,0.3c-0.1,0-0.2,0-0.3-0.1c-0.7-0.6-1.5-1.2-2.2-1.8c-0.1-0.1-0.1-0.1-0.2,0c0,0-0.1,0-0.1,0    c-0.3,0-0.6,0.1-0.9,0c-0.2,0-0.2-0.1-0.2-0.2c-0.1-0.2,0-0.5,0.2-0.7c-0.1,0-0.1,0-0.1-0.1c-1.2-0.7-2.4-1.4-3.6-2    C14.3,36.1,14,35.9,13.7,35.7C13.8,35.7,13.7,35.7,13.7,35.7z"/>
	</g>
</g>
</svg>
