<?xml version="1.0" encoding="utf-8"?>
<!-- Generator: Adobe Illustrator 25.2.0, SVG Export Plug-In . SVG Version: 6.00 Build 0)  -->
<svg xmlns="http://www.w3.org/2000/svg" xmlns:xlink="http://www.w3.org/1999/xlink" version="1.1" id="Layer_1" x="0px" y="0px" viewBox="0 0 63 63" style="enable-background:new 0 0 63 63;" xml:space="preserve">
<style type="text/css">
	.st0{fill:#00406E;}
	.st1{fill:#FFFFFF;}
</style>
<circle class="st0" cx="31.5" cy="31.5" r="31.5"/>
<g>
	<g>
		<path class="st1" d="M37.1,21.7c1.6,0.5,3.3-0.5,3.8-2.1c0.5-1.6-0.5-3.3-2.1-3.8c-1.6-0.5-3.3,0.5-3.8,2.1    C34.6,19.6,35.5,21.2,37.1,21.7z"/>
	</g>
	<g>
		<path class="st1" d="M45.6,29.8c0,0-5.4,1.4-6.2-0.7C39,28.2,38.5,26,37.8,25c-1.2-1.7-2.2-2.7-3.2-3.3c-1.9-1.1-7.2-0.3-7.2-0.3    c-3,0.6-4.8,5.1-4.8,5.1l1.2,0.6c0,0,2-2.6,4.1-2.8c2.2-0.2,3.6,0.2,3.6,0.2c-2.1,4.5-3.8,9.3-8.1,10.1c-4.2,0.8-6.2-2.8-6.2-2.8    l-1,1.5c0,0,3.5,4.9,7.8,4.6c4.1-0.3,5.9-2.2,5.9-2.2s5.3,1,5.5,4.5c0.2,2.5-2.1,6.9-2.1,6.9h2.4c0,0,2.8-4,2.9-7.7    c0.1-5.5-5.5-7.3-5.5-7.3l2.5-3.4c0,0,1.7,4.1,4.2,4.3c2.3,0,6-1.8,6-1.8L45.6,29.8z"/>
	</g>
</g>
</svg>
