<?xml version="1.0" encoding="utf-8"?>
<!-- Generator: Adobe Illustrator 25.2.0, SVG Export Plug-In . SVG Version: 6.00 Build 0)  -->
<svg xmlns="http://www.w3.org/2000/svg" xmlns:xlink="http://www.w3.org/1999/xlink" version="1.1" id="Layer_1" x="0px" y="0px" viewBox="0 0 63 63" style="enable-background:new 0 0 63 63;" xml:space="preserve">
<style type="text/css">
	.st0{fill:#00406E;}
	.st1{fill:#FFFFFF;}
</style>
<g>
	<circle class="st0" cx="31.5" cy="31.5" r="31.5"/>
	<path class="st1" d="M15.5,45.6c0.1,0,0.2,0,0.3,0c0.3,0,0.5,0.1,0.8,0.2c0.1,0,0.2,0.1,0.3,0.2c0.4,0.3,1.1,0.2,1.5-0.2   c0.3-0.3,0.5-0.6,0.7-0.9c0.3-0.4,0.6-0.9,0.8-1.4c0.2-0.4,0.4-0.8,0.5-1.2c0.1-0.4,0.2-0.8,0.3-1.2c0.1-0.5,0.3-0.9,0.4-1.4   c0.1-0.3,0.1-0.5,0.3-0.8c0.1-0.1,0.1-0.3,0.2-0.4c0.1-0.1,0.2-0.3,0.3-0.4c0,0,0,0,0,0l0,0C22,38.1,22,38,22,37.9   c0,0,0.1-0.1,0.1-0.1c0,0,0.1-0.1,0.1-0.1c0.4-0.3,0.7-0.6,1.1-0.9c0.3-0.2,0.5-0.4,0.8-0.5c0.2-0.1,0.5-0.3,0.7-0.5   c0.3-0.2,0.6-0.5,0.9-0.7c0.2-0.1,0.4-0.2,0.6-0.4c0.3-0.2,0.6-0.3,0.9-0.4c0.1,0,0.1,0,0.1,0c0,0.2,0.1,0.3,0.1,0.5   c0,0.2,0,0.5,0,0.7c0,0.4,0.2,0.6,0.5,0.7c0.2,0.1,0.3,0,0.5,0c0,0,0.1,0,0.1-0.1c0.3-0.1,0.6-0.2,0.9-0.3c0.5-0.3,1.1-0.5,1.6-0.8   c0.1-0.1,0.8-0.3,0.9-0.4c0.4-0.2,0.8-0.4,1.3-0.6c0.4-0.2,0.8-0.3,1.1-0.6c0.4-0.3,0.8-0.6,1.2-0.9c0.2-0.2,0.4-0.4,0.6-0.5   c0.2-0.1,0.3-0.2,0.5-0.4c0.1-0.1,0.5,0,0.6,0c0,0.1,0.1,0.1,0.2,0.2c0.1,0,0.2,0.1,0.3,0.1c0.1,0,0.2,0,0.3,0   c0.1-0.1,0.3-0.2,0.4-0.3c0.1-0.1,0.3-0.1,0.4-0.2c0,0,0.1,0,0.1,0.1c0,0.1,0,0.2-0.1,0.3c-0.2,0.3-0.3,0.7-0.3,1   c0,0.3-0.2,0.5-0.2,0.8c0,0.2,0,0.3,0,0.5c0,0-0.3,0.6-0.4,0.8c0,0.1-0.1,0.1-0.1,0.1c-0.2,0.1-0.4,0.3-0.5,0.5   c-0.2,0.3-0.3,0.5-0.5,0.8c0,0,0,0.1-0.1,0.1c0,0.1,0,0.2,0.1,0.2c0,0,0.1,0.1,0.1,0.1c0,0,0,0-0.1,0c-0.1,0-0.2,0-0.2,0.1   c0,0.1,0.1,0.1,0.2,0.1c0.3,0.1,0.5,0.1,0.8-0.1c0.1-0.1,0.2-0.1,0.2-0.2c0,0,0.1-0.1,0.1-0.1c0.3-0.1,0.4-0.3,0.5-0.6   c0.1-0.2,0.1-0.4,0.2-0.6c0,0,0-0.1,0.1-0.1c0.2-0.1,0.2-0.3,0.4-0.5c0-0.1,0.2-0.4,0.2-0.4c0.1-0.3,0.4-0.6,0.5-0.8   s0.4-0.7,0.6-0.9c0.2-0.2,0.3-0.5,0.4-0.7c0.1-0.2,0.1-0.2,0.1-0.4c0.1-0.1,0.2-0.4,0.3-0.6c0.1-0.2,0.2-0.5,0.3-0.5   c0.1-0.1,0.1-0.1,0.2-0.2c0.1-0.1,0.3-0.7,0.5-1c0.1-0.2,0.3-0.2,0.5-0.4c0.1,0,0.1-0.1,0.2-0.1c0,0,0.4-0.4,0.5-0.5   c0,0,0.1,0,0.1,0c0.2,0.2,0.6,0.1,0.8-0.1c0.1-0.1,0.1-0.2,0.2-0.3c0.1-0.1,0.1-0.3,0.1-0.4c0-0.3,0.1-0.7,0.1-1   c0-0.1,0.1-0.2,0.2-0.3c0,0,0,0,0-0.1c0-0.1,0.1-0.2,0.2-0.2c0.3,0,0.4-0.2,0.5-0.5c0-0.2,0-0.4-0.1-0.6c-0.1-0.3-0.2-0.5-0.3-0.8   c0-0.1-0.1-0.2-0.2-0.2c-0.2-0.1-0.3-0.3-0.4-0.5c-0.1-0.2-0.2-0.3-0.4-0.5c0,0,0,0-0.1-0.1c0.1,0,0.3,0.1,0.4,0.2   c0.2,0.3,0.4,0.5,0.6,0.8c0.3,0.4,0.6,0.9,1,1.2c0.3,0.3,0.7,0.5,1.1,0.5c0.5,0,0.9-0.4,0.8-0.8c0-0.5-0.4-0.9-0.8-1.2   c-0.6-0.4-1.2-0.6-1.9-0.7c-0.2,0-0.4-0.1-0.7-0.1c0,0-0.1,0-0.1-0.1c0-0.1,0-0.1,0-0.2c0,0,0,0,0.1,0c0.1-0.1,0.2-0.2,0.2-0.4   c0-0.1,0-0.3,0.2-0.4c0.2-0.1,0.3-0.4,0.4-0.6c0-0.1,0.1-0.2,0.1-0.4c0-0.1,0-0.2,0-0.3c0-0.5-0.2-0.8-0.4-1.2   c-0.1-0.1-0.2-0.2-0.3-0.3c-0.2-0.1-0.4-0.3-0.6-0.4c-0.1-0.1-0.2-0.1-0.4-0.1c-0.1,0-0.2-0.1-0.4-0.1c-0.1,0-0.2,0-0.2,0.1   c0,0,0,0,0,0c-0.2,0.1-0.3,0.1-0.5,0.2c-0.1,0-0.2,0-0.3,0c-0.1,0-0.3,0-0.4,0c0,0-0.1,0-0.1,0c-0.4,0.1-0.7,0.4-0.8,0.9   c0,0.2,0.1,0.3,0.2,0.4c0.1,0.1,0,0.2,0,0.2c-0.1,0.1-0.1,0-0.2-0.1c-0.1-0.1-0.2-0.3-0.4-0.3c0,0-0.1-0.1-0.1-0.1   c-0.4-0.2-0.7-0.5-1-0.8c0,0,0,0-0.1-0.1c-0.1-0.1-0.3-0.2-0.4-0.3c-0.1,0-0.1,0-0.2,0c-0.1,0,0,0.1,0,0.2c0,0.1,0,0.1,0.1,0.1   c0.2,0.2,0.4,0.5,0.6,0.7c0,0,0,0,0,0.1c0,0-0.1,0-0.1,0c-0.3-0.1-0.7-0.1-1,0c-0.5,0-1.4,0.3-1.5,0.4c-0.2,0-0.4,0.1-0.5,0.2   c-0.6,0.3-1.2,0.6-1.7,1c-0.1,0.1-0.3,0.2-0.4,0.3c-0.5,0.4-1,0.9-1.3,1.4C33,23,33,23,32.9,23c-0.1,0-0.2,0-0.2,0.1c0,0,0,0,0,0   c-0.3,0.1-1.2,0.5-1.4,0.6c-0.2,0.1-0.5,0.3-0.7,0.4c-0.1,0.1-0.2,0.1-0.3,0c0-0.1-0.1-0.1-0.2-0.1c-0.3-0.1-0.5,0-0.8,0.1   c-0.2,0.1-0.2,0.3-0.2,0.5c0,0.1,0,0.1-0.1,0.1c-0.1,0-0.1,0-0.2,0.1c-0.1,0.1-0.2,0.3-0.4,0.3c-0.2,0-0.5,0-0.7,0   c-0.2,0-0.4,0.1-0.6,0.2c-0.1,0-0.2,0.1-0.2,0.3c0,0.2-0.2,0.2-0.3,0.4c-0.2,0.2-0.3,0.3-0.4,0.6c0,0,0,0.1,0,0.1c0,0,0.1,0,0.1,0   c0.1,0,0.2-0.1,0.2-0.2c0,0.1,0.1,0.2,0.1,0.3c0,0.1,0,0.1,0.1,0.1c0.1,0,0.1-0.1,0.2-0.1c0-0.1,0-0.1,0-0.2c0,0,0,0.1,0.1,0.1   c0,0,0,0.1,0.1,0.1c0.1,0,0.1-0.1,0.1-0.1c0-0.1,0-0.2-0.1-0.2c-0.1-0.1,0-0.2,0.1-0.3c0.1-0.1,0.2-0.1,0.3-0.1c0.1,0,0.2,0,0.2,0   c0.1,0,0.2,0,0.2,0.1c0.1,0.1,0.1,0.2-0.1,0.3c-0.2,0.1-0.4,0.1-0.5,0.2c0,0-0.1,0.1-0.1,0.1c0,0.1-0.1,0.1,0,0.2   c0,0.1,0.1,0.1,0.1,0.1c0.3,0,0.5-0.1,0.7-0.2c0.3-0.1,0.5-0.2,0.8-0.4c0.1-0.1,0.2-0.1,0.3-0.2c0.1-0.1,0.2-0.2,0.3-0.2   c0,0,0.3-0.1,0.5-0.2c0.2-0.1,0.5-0.1,0.6-0.3c0,0,0.1,0,0.1,0c0.1,0,0.1,0,0.2,0c0.1,0,0.3-0.1,0.3-0.2c0,0,0.1,0,0.1,0   c0.3,0,1.2-0.4,1.3-0.4c0,0.4,0,0.8,0.3,1.2c0,0,0,0.1,0.1,0.1c0,0,0,0,0,0c-0.1,0.2-0.3,0.3-0.5,0.4c-0.4,0.3-0.8,0.7-1.2,1   c0,0-0.1,0.1-0.1,0.1c-0.2-0.1-0.3,0-0.4,0.1c-0.1,0.1-0.6,0.5-0.8,0.7c-0.3,0.3-0.6,0.6-0.8,0.9c-0.2,0.3-0.4,0.5-0.6,0.8   c-0.1,0.1-0.4,0.5-0.4,0.5c0,0-0.2,0.1-0.2,0.2c-0.1,0.2-0.3,0.3-0.4,0.4c-0.2,0.2-0.4,0.5-0.6,0.7c-0.3,0.3-0.6,0.6-0.9,0.9   c0,0-0.1,0-0.1,0c-0.4,0.1-0.8,0.3-1.2,0.4c-0.4,0.1-0.8,0.1-1.1,0.1c-0.5,0-1,0.1-1.5,0.2c-0.4,0.1-0.8,0.2-1.2,0.3   c-0.2,0.1-0.3,0.2-0.2,0.4c0,0,0,0,0,0.1c0.1,0.3,0.1,0.5,0.4,0.7c0.2,0.2,0.3,0.4,0.5,0.6c0.1,0.1,0.3,0.2,0.5,0.2   c0,0,0.1,0,0.1,0c0.1,0,0.1,0.1,0,0.1c-0.3,0.3-0.6,0.6-0.9,0.9C21.4,37,21.3,37,21.1,37c-0.2,0-0.4,0-0.5,0.2c0,0-0.5,0.9-0.7,1.3   c-0.2,0.3-0.4,0.6-0.6,1c-0.1,0.2-0.7,1.1-0.8,1.3c-0.4,0.5-0.9,0.9-1.3,1.4c-0.5,0.6-1.1,1.2-1.5,1.9c-0.2,0.3-0.4,0.6-0.6,0.9   C14.9,45.3,15.1,45.6,15.5,45.6z M44.8,23.1c0,0,0.1,0,0.1,0c0.5,0.1,0.9,0.2,1.4,0.3c0.4,0.1,0.7,0.3,1,0.6   c0.2,0.2,0.4,0.4,0.4,0.7c0,0.2,0,0.3-0.1,0.4c-0.2,0.2-0.4,0.3-0.7,0.2c-0.5-0.2-0.8-0.5-1.1-0.9C45.4,24.1,45.1,23.7,44.8,23.1   C44.8,23.2,44.8,23.2,44.8,23.1z M37.3,36c0,0.1-0.1,0-0.2,0.1C37.1,35.9,37.2,35.9,37.3,36C37.3,35.9,37.3,35.9,37.3,36z    M35.1,22.1c-0.2,0.1-0.5,0.1-0.7,0.3c0,0-0.1,0.1-0.1,0c-0.3,0-0.5,0.1-0.8,0.2c0,0.1,0,0.1-0.1,0.1c0,0,0.1-0.1,0.1-0.1   c0-0.1,0-0.1,0.1-0.1c0.7-0.9,1.7-1.5,2.7-2c0.3-0.2,0.6-0.3,1-0.4c0,0,0.2-0.1,0.3-0.1c0,0,1.1-0.2,1.6-0.2c0.2,0,0.4,0.1,0.6,0.1   c0.2,0.1,0.2,0.1,0.1,0.3c0,0.1-0.1,0.2-0.1,0.3c0,0,0,0.1-0.1,0.1c-0.3-0.1-0.6-0.1-0.9-0.4c-0.2-0.1-0.2-0.1-0.4,0   c-0.2,0.1-0.4,0.3-0.6,0.5c-0.1,0.1-0.1,0.1-0.2,0.1c-0.5,0.1-1,0.5-1.5,0.7c-0.1,0-0.2,0.1-0.3,0.2C35.6,21.9,35.4,22.1,35.1,22.1   z M32.8,24.8c0-0.1,0-0.1,0.1-0.1c0.1,0,0.1,0,0.2-0.1c0.1-0.1,0.2-0.1,0.4-0.1c0.2,0,0.4,0,0.5-0.2c0,0,0.1-0.1,0.2-0.1   c0.2,0,0.3-0.1,0.5-0.1c0.2,0,0.3-0.1,0.5-0.1c0.1,0,0.2-0.1,0.4-0.1c0,0.1-0.1,0.1-0.1,0.1c-0.1,0.1-0.2,0.2-0.3,0.3   c0,0.2-0.2,0.2-0.3,0.3c-0.2,0.2-0.4,0.3-0.6,0.4c-0.2,0.1-0.3,0.1-0.5,0.3c-0.2,0.2-0.4,0.3-0.5,0.5c0,0-0.1,0.1-0.1,0.1   c0,0.1-0.1,0.1-0.1,0C32.9,25.4,32.8,25.1,32.8,24.8z M28.6,33.5c0.3-0.2,0.5-0.4,0.7-0.5c0.2-0.2,0.8-0.7,0.9-0.7   c0.1-0.1,0.3-0.1,0.4-0.2c0,0,0,0,0.1,0c-0.1,0.1-0.5,0.5-0.5,0.5c-0.4,0.4-0.8,0.7-1.2,1.1c0,0-0.1,0.1-0.1,0   C28.7,33.6,28.6,33.6,28.6,33.5z"/>
</g>
</svg>
