<?xml version="1.0" encoding="utf-8"?>
<!-- Generator: Adobe Illustrator 25.2.0, SVG Export Plug-In . SVG Version: 6.00 Build 0)  -->
<svg xmlns="http://www.w3.org/2000/svg" xmlns:xlink="http://www.w3.org/1999/xlink" version="1.1" id="Layer_1" x="0px" y="0px" viewBox="0 0 63 63" style="enable-background:new 0 0 63 63;" xml:space="preserve">
<style type="text/css">
	.st0{fill:#00406E;}
	.st1{fill:#FFFFFF;}
	.st2{fill:none;stroke:#00406E;stroke-width:0.5662;stroke-linecap:round;stroke-linejoin:round;stroke-miterlimit:10;}
</style>
<g>
	<circle class="st0" cx="31.5" cy="31.5" r="31.5"/>
	<g>
		<g>
			<g>
				<path class="st1" d="M31.1,23c-0.2-0.2-0.6-0.6-0.7-0.7c-1.9-1.9-4.1-2.9-6.8-2.7c-1.8,0.1-3.4,0.7-4.6,2      c-2.5,2.5-3.3,5.4-2.3,8.8c0.5,1.8,1.4,3.5,2.5,5c1.4,1.9,3,3.6,4.6,5.3c2.4,2.3,5,4.3,7.7,6.2c0.1,0.1,0.2,0.1,0.2,0      c0.6-0.5,1.2-0.9,1.9-1.4c2-1.5,4-3.1,5.8-4.8c1.7-1.6,3.3-3.3,4.6-5.3c1.1-1.5,2-3.2,2.5-5c0.6-2.3,0.5-4.5-0.7-6.6      c-0.7-1.5-1.8-2.7-3.3-3.5c-2.2-1.2-4.5-1.2-6.8-0.2c-1.2,0.5-2.3,1.3-3.3,2.3c-0.1,0.2-0.3,0.3-0.6,0.6      C31.6,23.3,31.2,23.3,31.1,23z"/>
			</g>
		</g>
		<polyline class="st2" points="17.1,34.8 25.4,34.8 26.4,32.3 28,38.1 30,25 31.8,43.5 34.1,28.4 35.6,37.5 36.4,34.8 45.8,34.8       "/>
	</g>
</g>
</svg>
