<?xml version="1.0" encoding="utf-8"?>
<!-- Generator: Adobe Illustrator 25.2.0, SVG Export Plug-In . SVG Version: 6.00 Build 0)  -->
<svg xmlns="http://www.w3.org/2000/svg" xmlns:xlink="http://www.w3.org/1999/xlink" version="1.1" id="Layer_1" x="0px" y="0px" viewBox="0 0 63 63" style="enable-background:new 0 0 63 63;" xml:space="preserve">
<style type="text/css">
	.st0{fill:#00406E;}
	.st1{fill:#FFFFFF;}
</style>
<circle class="st0" cx="31.5" cy="31.5" r="31.5"/>
<g>
	<path class="st1" d="M32.1,43.8l-9.8-16.4c-0.6-1-0.3-2.4,0.8-3l0,0c1-0.6,2.4-0.3,3,0.8l9.8,16.4c0.6,1,0.3,2.4-0.8,3h0   C34.1,45.2,32.7,44.9,32.1,43.8z"/>
	<circle class="st1" cx="21.6" cy="21" r="3"/>
	<path class="st1" d="M36.1,32.9h-8.2c-0.7,0-1.3-0.6-1.3-1.3v0c0-0.7,0.6-1.3,1.3-1.3h8.2c0.7,0,1.3,0.6,1.3,1.3v0   C37.3,32.3,36.8,32.9,36.1,32.9z"/>
	<path class="st1" d="M48.5,43.3l-10.4-5c-0.8-0.4-1.1-1.4-0.7-2.2v0c0.4-0.8,1.4-1.1,2.2-0.7l10.4,5c0.8,0.4,1.1,1.4,0.7,2.2v0   C50.3,43.4,49.3,43.7,48.5,43.3z"/>
	<g>
		<path class="st1" d="M26.6,45.4c-1.5,0-2.7-1.2-2.7-2.7V36c0-1.5,1.2-2.7,2.7-2.7h14.1c1.5,0,2.7,1.2,2.7,2.7v6.7    c0,1.5-1.2,2.7-2.7,2.7H26.6z"/>
		<path class="st0" d="M40.7,33.7c1.3,0,2.3,1,2.3,2.3v6.7c0,1.3-1,2.3-2.3,2.3H26.6c-1.3,0-2.3-1-2.3-2.3V36c0-1.3,1-2.3,2.3-2.3    H40.7 M40.7,32.8H26.6c-1.7,0-3.1,1.4-3.1,3.1v6.7c0,1.7,1.4,3.1,3.1,3.1h14.1c1.7,0,3.1-1.4,3.1-3.1V36    C43.8,34.3,42.4,32.8,40.7,32.8L40.7,32.8z"/>
	</g>
	<path class="st1" d="M24.4,43.4L12.5,23.7c-0.8-1.3-0.3-2.9,0.9-3.7l0,0c1.3-0.8,2.9-0.3,3.7,0.9L29,40.7c0.8,1.3,0.3,2.9-0.9,3.7   l0,0C26.8,45.1,25.1,44.7,24.4,43.4z"/>
</g>
</svg>
