<?xml version="1.0" encoding="utf-8"?>
<!-- Generator: Adobe Illustrator 25.2.0, SVG Export Plug-In . SVG Version: 6.00 Build 0)  -->
<svg xmlns="http://www.w3.org/2000/svg" xmlns:xlink="http://www.w3.org/1999/xlink" version="1.1" id="Layer_1" x="0px" y="0px" viewBox="0 0 63 63" style="enable-background:new 0 0 63 63;" xml:space="preserve">
<style type="text/css">
	.st0{fill:#00406E;}
	.st1{fill:#FFFFFF;}
</style>
<g>
	<circle class="st0" cx="31.5" cy="31.5" r="31.5"/>
</g>
<g>
	<rect x="19.5" y="37" class="st1" width="1.7" height="4.4"/>
	<g>
		<path class="st1" d="M21.9,41.2c0,0.2-0.1,0.4-0.2,0.4h-0.5c-0.1,0-0.2-0.2-0.2-0.4v-4.1c0-0.2,0.1-0.4,0.2-0.4h0.5    c0.1,0,0.2,0.2,0.2,0.4C21.9,37.2,21.9,41.2,21.9,41.2z"/>
	</g>
	<rect x="22.1" y="37.2" class="st1" width="0.2" height="4.1"/>
	<rect x="22.6" y="37.1" class="st1" width="0.2" height="4.2"/>
	<rect x="23.1" y="36.8" class="st1" width="0.3" height="4.9"/>
	<rect x="23.6" y="36.8" class="st1" width="0.2" height="4.9"/>
	<path class="st1" d="M31.6,35.6c-2,0-3.7,1.6-3.7,3.7c0,2,1.6,3.7,3.7,3.7c2,0,3.7-1.6,3.7-3.7C35.3,37.3,33.7,35.6,31.6,35.6"/>
	<path class="st1" d="M41.1,40.4c0,0.2-0.1,0.3-0.3,0.3s-0.3-0.1-0.3-0.3v-3.1c0-0.2,0.1-0.3,0.3-0.3s0.3,0.1,0.3,0.3V40.4z"/>
	<path class="st1" d="M40.2,40.5c0,0.1-0.2,0.2-0.4,0.2c-0.2,0-0.4-0.1-0.4-0.2l0-4.6c0-0.1,0.2-0.2,0.4-0.2c0.2,0,0.4,0.1,0.4,0.2   L40.2,40.5z"/>
	<path class="st1" d="M37.4,34.2c0,0,0-0.4,0.4-0.2c0.4,0.1,1.2,0.1,1.4,0.4c0.2,0.3,0.9,0.5,0.9,2c0,1.5-0.3-0.3-0.3-0.3l-1.5,0   c0,0-0.5-0.2-0.6-0.7C37.5,34.8,37.4,34.2,37.4,34.2"/>
	<path class="st1" d="M37.8,39.8h-1.4c0-0.2,0-0.5,0-0.8c0-0.2,0-0.5,0-0.7h1.4c0,0.2,0,0.5,0,0.7C37.8,39.2,37.8,39.5,37.8,39.8    M37.5,41.2h-1.4c0.1-0.3,0.1-0.6,0.2-1h1.4C37.7,40.5,37.6,40.8,37.5,41.2 M31.6,43.7c-2.4,0-4.3-2-4.3-4.3c0-2.4,2-4.3,4.3-4.3   c2.4,0,4.3,2,4.3,4.3C36,41.7,34,43.7,31.6,43.7 M25.7,41.2c-0.1-0.3-0.1-0.6-0.2-1H27c0,0.4,0.1,0.6,0.2,1H25.7z M25.5,38.9   c0-0.2,0-0.5,0-0.7h1.4c0,0.2,0,0.5,0,0.7c0,0.3,0,0.6,0,0.8h-1.4C25.5,39.5,25.5,39.2,25.5,38.9 M25.7,36.9h1.4   c-0.1,0.3-0.1,0.6-0.2,1h-1.4C25.6,37.5,25.6,37.1,25.7,36.9 M37.6,36.9c0.1,0.3,0.1,0.6,0.2,1h-1.4c0-0.4-0.1-0.6-0.2-1H37.6z    M38,36.4c-0.2-0.6-1-1-1-1h-0.7c-1.1-1.4-2.8-2.3-4.7-2.3s-3.6,0.9-4.7,2.3h-0.6c0,0-0.7,0.3-1,1h-1v5h0.9   c0.1,0.8,1.1,1.2,1.1,1.2h0.4c1.1,1.6,2.9,2.7,5,2.7s3.9-1.1,5-2.7h0.4c0,0,0.9-0.4,1.1-1.2h1.1v-5C39.2,36.4,38,36.4,38,36.4z"/>
	<path class="st1" d="M44,26.8c-0.2,0.5-1.6,2.2-2.1,2.6c-0.6,0.4-3.7,1-4.1,0.8c-0.3-0.1-0.6-0.3-0.8-0.6c-0.2-0.4-1.1-2-1.6-2.9   c-0.4-0.7-2.3-3.7-3.9-3.7c-1.7,0-3,2.4-3.5,3.2c-0.5,0.9-1.7,3-2,3.4c-0.2,0.4-0.4,0.6-0.8,0.6c-0.4,0-3.4-0.4-4.1-0.8   c-0.6-0.4-2-2-2.1-2.6c-0.2-0.6,0-5.6,0-5.6c0-1.7,2-1.9,2.3-1.9c0,0,2-0.2,2.9-0.3c0.8,0,2.3,0,2.9,0c0.6,0,3.2,0.2,3.2,0.2   s1.8,0.1,2.7,0c0.9-0.1,2.5-0.2,3.2-0.2c0.7,0,2.3,0,3,0c1.1,0.1,2.2,0.2,3.1,0.4c0.5,0.1,2,0.1,2,1.8C44,21.2,44.3,26.3,44,26.8z    M42.1,18.1c-1-0.1-2.4-0.4-3.2-0.4c-0.9,0-2.4,0-3.1,0c-0.6,0-3.2,0.4-4.3,0.4s-3.8-0.4-4.5-0.4c-0.8,0-2.1-0.1-3.2,0   c-1.2,0.1-2.9,0.4-2.9,0.4c-1.2,0.1-3.1,0.7-3.1,3c0,0-0.2,5.2,0,6.1c0.2,0.8,2,2.9,2.7,3.3c0.7,0.4,4.5,1.2,5.2,1   c0.7-0.1,1.4-1.2,1.4-1.2l1.7-3.5c0,0,1.4-2.6,2.7-2.6s2.7,2.6,2.7,2.6s1.2,2.6,1.7,3.2c0.4,0.6,0.7,1.2,1.4,1.4   c0.4,0.1,4.4-0.4,5.2-1c0.8-0.6,2.4-2.4,2.7-3.3c0.2-0.9,0-6.1,0-6.1C45.3,18.9,43.2,18.2,42.1,18.1"/>
	<path class="st1" d="M31.5,25.1c-1.4,0-4.1,6-4.1,6.3c0,0.3,0.4,0.6,0.8,0.6h2.7H32h2.7c0.4,0,0.8-0.3,0.8-0.6   C35.6,31.1,32.9,25.1,31.5,25.1z"/>
</g>
</svg>
